<?xml version="1.0" encoding="UTF-8" standalone="no"?>
<!DOCTYPE svg PUBLIC "-//W3C//DTD SVG 1.1//EN" "http://www.w3.org/Graphics/SVG/1.1/DTD/svg11.dtd">
<svg xmlns:dc="http://purl.org/dc/elements/1.1/" version="1.1" xmlns="http://www.w3.org/2000/svg" xmlns:xl="http://www.w3.org/1999/xlink" viewBox="0 0 65 15" width="65" height="15">
  <defs/>
  <metadata> Produced by OmniGraffle 7.12.1 
    <dc:date>2021-06-30 02:15:17 +0000</dc:date>
  </metadata>
  <g id="Canvas_1" stroke-opacity="1" stroke-dasharray="none" fill="none" fill-opacity="1" stroke="none">
    <title>Canvas 1</title>
    <g id="Canvas_1: Layer 1">
      <title>Layer 1</title>
      <g id="Group_10">
        <title>text3852</title>
        <g id="Graphic_21">
          <title>path31</title>
          <path d="M .742227 12.341875 L .742227 2.658125 L 2.805977 2.658125 L 2.805977 3.420125 L 1.684144 3.420125 L 1.684144 11.579875 L 2.805977 11.579875 L 2.805977 12.341875 Z" fill="purple"/>
        </g>
        <g id="Graphic_20">
          <title>path33</title>
          <path d="M 12.015461 7.410041 C 12.015461 8.277874 11.803794 8.986958 11.380461 9.537291 C 10.964183 10.087624 10.385628 10.362791 9.644795 10.362791 C 9.038017 10.362791 8.551184 10.09468 8.184295 9.558458 L 8.184295 10.235791 L 7.242378 10.235791 L 7.242378 2.658125 L 8.184295 2.658125 L 8.184295 5.356875 C 8.57235 4.8700417 9.076822 4.626625 9.697711 4.626625 C 10.410322 4.626625 10.974767 4.880625 11.391044 5.388625 C 11.807322 5.889569 12.015461 6.563374 12.015461 7.410041 Z M 9.613045 5.388625 C 9.147378 5.388625 8.791073 5.579125 8.544128 5.960125 C 8.304239 6.341125 8.184295 6.835014 8.184295 7.441791 C 8.184295 8.25318 8.321878 8.817625 8.597045 9.135125 C 8.872212 9.445569 9.196767 9.600791 9.570711 9.600791 C 9.852933 9.600791 10.09635 9.530236 10.300961 9.389125 C 10.512628 9.248014 10.671378 9.064569 10.777211 8.838791 C 10.883044 8.605958 10.957128 8.38018 10.999461 8.161458 C 11.048848 7.93568 11.073541 7.71343 11.073541 7.494708 C 11.073541 6.88793 10.957124 6.386986 10.724291 5.991875 C 10.491458 5.5897083 10.121041 5.388625 9.613042 5.388625 Z" fill="#668000"/>
        </g>
        <g id="Graphic_19">
          <title>path35</title>
          <rect x="13.133491" y="2.658125" width=".941916" height="7.577666" fill="#668000"/>
        </g>
        <g id="Graphic_18">
          <title>path37</title>
          <path d="M 18.99302 10.087625 C 18.640242 10.271069 18.220436 10.362791 17.733603 10.362791 C 17.24677 10.362791 16.823436 10.271069 16.463603 10.087625 C 16.110825 9.90418 15.842714 9.664291 15.659269 9.367958 C 15.48288 9.064569 15.352353 8.757653 15.267686 8.447208 C 15.190075 8.136763 15.151269 7.819263 15.151269 7.494708 C 15.151269 6.63393 15.377047 5.942486 15.828603 5.420375 C 16.287214 4.8912083 16.922214 4.626625 17.733603 4.626625 C 18.544992 4.626625 19.176464 4.8912083 19.62802 5.420375 C 20.08663 5.942486 20.315936 6.63393 20.315936 7.494708 C 20.315936 7.819263 20.273603 8.136763 20.188936 8.447208 C 20.111325 8.757653 19.980797 9.064569 19.797353 9.367958 C 19.620964 9.664291 19.352852 9.90418 18.99302 10.087625 Z M 18.9401 5.970708 C 18.657876 5.5826527 18.25571 5.388625 17.7336 5.388625 C 17.211488 5.388625 16.805793 5.5826527 16.516515 5.970708 C 16.234293 6.351708 16.093182 6.859708 16.093182 7.494708 C 16.093182 7.748708 16.117875 7.992125 16.167262 8.224958 C 16.223709 8.457791 16.308375 8.683569 16.421262 8.902291 C 16.541207 9.113958 16.71054 9.283291 16.929262 9.410291 C 17.15504 9.537291 17.423151 9.600791 17.733596 9.600791 C 18.04404 9.600791 18.308623 9.537291 18.527346 9.410291 C 18.753123 9.283291 18.922457 9.113958 19.035346 8.902291 C 19.15529 8.683569 19.239957 8.457791 19.289346 8.224958 C 19.345793 7.992125 19.374016 7.748708 19.374016 7.494708 C 19.374016 6.859708 19.229377 6.351708 18.9401 5.970708 Z" fill="#668000"/>
        </g>
        <g id="Graphic_17">
          <title>path39</title>
          <path d="M 21.105883 7.505291 C 21.105883 6.954958 21.183494 6.482236 21.338716 6.087125 C 21.493938 5.692014 21.69855 5.3956803 21.95255 5.198125 C 22.213605 4.9935137 22.481716 4.8488747 22.756883 4.764208 C 23.03205 4.672486 23.321327 4.626625 23.624716 4.626625 C 24.852383 4.626625 25.582633 5.2051803 25.815466 6.362291 L 24.9053 6.499875 C 24.750077 5.759042 24.3338 5.388625 23.656466 5.388625 C 22.58402 5.388625 22.0478 6.090653 22.0478 7.494708 C 22.0478 8.898763 22.566382 9.600791 23.60355 9.600791 C 24.386716 9.600791 24.848855 9.14218 24.989966 8.224958 L 25.88955 8.341375 C 25.790772 8.955208 25.543827 9.445569 25.148716 9.812458 C 24.76066 10.179347 24.25266 10.362791 23.624716 10.362791 C 22.827438 10.362791 22.20655 10.105263 21.76205 9.590208 C 21.324605 9.068097 21.105883 8.373124 21.105883 7.505291 Z" fill="#668000"/>
        </g>
        <g id="Graphic_16">
          <title>path41</title>
          <path d="M 26.673212 10.235791 L 26.673212 2.658125 L 27.61513 2.658125 L 27.61513 6.976125 L 29.80588 4.753625 L 31.022962 4.753625 L 28.906295 6.785625 L 31.23463 10.235791 L 30.081045 10.235791 L 28.260712 7.431208 L 27.61513 8.066208 L 27.61513 10.235791 Z" fill="#668000"/>
        </g>
        <g id="Graphic_15">
          <title>path43</title>
          <path d="M 40.292806 7.441791 C 40.292806 8.281402 40.07761 8.979902 39.647223 9.537291 C 39.22389 10.087624 38.645334 10.362791 37.911556 10.362791 C 37.325945 10.362791 36.849695 10.129958 36.482806 9.664291 L 36.482806 12.341875 L 35.54089 12.341875 L 35.54089 4.753625 L 36.482806 4.753625 L 36.482806 5.462708 C 36.786195 4.9053193 37.28361 4.626625 37.975056 4.626625 C 38.71589 4.626625 39.28739 4.8841527 39.689556 5.399208 C 40.091723 5.914263 40.292806 6.595124 40.292806 7.441791 Z M 37.89039 5.388625 C 37.44589 5.388625 37.100168 5.5826527 36.853223 5.970708 C 36.60628 6.351708 36.482806 6.870291 36.482806 7.526458 C 36.482806 8.909347 36.941417 9.600791 37.85864 9.600791 C 38.345473 9.600791 38.71589 9.403236 38.96989 9.008125 C 39.22389 8.613014 39.35089 8.090902 39.35089 7.441791 C 39.35089 6.827958 39.22389 6.334069 38.96989 5.960125 C 38.722945 5.579125 38.36311 5.388625 37.89039 5.388625 Z" fill="#8a0"/>
        </g>
        <g id="Graphic_14">
          <title>path45</title>
          <path d="M 43.622753 5.388625 C 43.1712 5.388625 42.843114 5.4697637 42.638503 5.632041 C 42.44095 5.787264 42.285725 6.055375 42.172836 6.436375 L 41.283836 6.309375 C 41.51667 5.1875417 42.33864 4.626625 43.749753 4.626625 C 44.525864 4.626625 45.07267 4.7712637 45.39017 5.060541 C 45.714725 5.3427637 45.877003 5.889569 45.877003 6.700958 L 45.877003 9.113958 C 45.877003 9.502013 45.972253 9.875958 46.162753 10.235791 L 45.19967 10.235791 C 45.10795 10.038236 45.047975 9.812458 45.019753 9.558458 C 44.3777 10.09468 43.700364 10.362791 42.987753 10.362791 C 42.43742 10.362791 41.985864 10.225208 41.633086 9.950041 C 41.28031 9.667819 41.10392 9.283291 41.10392 8.796458 C 41.10392 8.232013 41.368503 7.780458 41.89767 7.441791 C 42.123447 7.293624 42.61028 7.166624 43.35817 7.060791 C 44.10606 6.947902 44.631697 6.838541 44.935086 6.732708 L 44.935086 6.499875 C 44.935086 5.759042 44.49764 5.388625 43.622753 5.388625 Z M 43.220586 9.600791 C 44.363586 9.600791 44.935086 9.008124 44.935086 7.822791 L 44.935086 7.494708 C 44.702253 7.593486 44.314197 7.685208 43.77092 7.769875 C 43.234697 7.847486 42.811364 7.956847 42.50092 8.097958 C 42.19753 8.232013 42.045836 8.454263 42.045836 8.764708 C 42.045836 9.322097 42.43742 9.600791 43.220586 9.600791 Z" fill="#8a0"/>
        </g>
        <g id="Graphic_13">
          <title>path47</title>
          <path d="M 47.323116 10.235791 L 47.323116 4.753625 L 48.25445 4.753625 L 48.25445 5.515625 C 48.53667 4.9229583 49.090533 4.626625 49.916033 4.626625 C 51.15781 4.626625 51.7787 5.289847 51.7787 6.616291 L 51.7787 10.235791 L 50.83678 10.235791 L 50.83678 6.891458 C 50.83678 5.889569 50.45931 5.388625 49.704366 5.388625 C 48.74481 5.388625 48.265033 6.002458 48.265033 7.230125 L 48.265033 10.235791 Z" fill="#8a0"/>
        </g>
        <g id="Graphic_12">
          <title>path49</title>
          <path d="M 53.85981 7.716958 C 53.89509 8.288458 54.05384 8.747069 54.33606 9.092791 C 54.62534 9.431458 55.02398 9.600791 55.53198 9.600791 C 56.20931 9.600791 56.69262 9.223319 56.981896 8.468375 L 57.934396 8.584791 C 57.60984 9.770124 56.80551 10.362791 55.521396 10.362791 C 54.695896 10.362791 54.05384 10.119374 53.59523 9.632541 C 53.13662 9.138652 52.90731 8.436625 52.90731 7.526458 C 52.90731 6.644513 53.12956 5.942486 53.57406 5.420375 C 54.02562 4.8912083 54.65709 4.626625 55.46848 4.626625 C 56.20226 4.626625 56.78434 4.848875 57.21473 5.293375 C 57.64512 5.730819 57.888535 6.334069 57.94498 7.103125 L 57.94498 7.716958 Z M 53.91273 6.954958 L 56.9819 6.954958 C 56.89723 5.910736 56.399816 5.388625 55.48965 5.388625 C 55.03104 5.388625 54.66062 5.5367917 54.3784 5.833125 C 54.10323 6.122402 53.94801 6.496347 53.91273 6.954958 Z" fill="#8a0"/>
        </g>
        <g id="Graphic_11">
          <title>path51</title>
          <path d="M 64.25777 12.341875 L 62.19402 12.341875 L 62.19402 11.579875 L 63.33702 11.579875 L 63.33702 3.420125 L 62.19402 3.420125 L 62.19402 2.658125 L 64.25777 2.658125 Z" fill="purple"/>
        </g>
      </g>
    </g>
  </g>
</svg>
